<?xml version="1.0" encoding="UTF-8" standalone="no"?><svg xmlns="http://www.w3.org/2000/svg" xmlns:xlink="http://www.w3.org/1999/xlink" clip-rule="evenodd" stroke-miterlimit="10" viewBox="0 0 165 50"><desc>SVG generated by Keynote</desc><defs></defs><g transform="matrix(1.00, 0.00, -0.00, -1.00, 0.0, 50.0)"><text xml:space="preserve" font-family="MarkerFelt-Thin,Marker Felt" font-size="46.0" fill="#858585" transform="matrix(1.00, 0.00, -0.00, -1.00, 1.6, 11.0)">a</text><text xml:space="preserve" font-family="MarkerFelt-Thin,Marker Felt" font-size="46.0" fill="#858585" transform="matrix(1.00, 0.00, -0.00, -1.00, 24.0, 11.0)">d</text><text xml:space="preserve" font-family="MarkerFelt-Thin,Marker Felt" font-size="46.0" fill="#858585" transform="matrix(1.00, 0.00, -0.00, -1.00, 45.7, 11.0)">l</text><text xml:space="preserve" font-family="MarkerFelt-Thin,Marker Felt" font-size="46.0" fill="#858585" transform="matrix(1.00, 0.00, -0.00, -1.00, 56.1, 11.0)">e</text><text xml:space="preserve" font-family="MarkerFelt-Thin,Marker Felt" font-size="46.0" fill="#858585" transform="matrix(1.00, 0.00, -0.00, -1.00, 73.6, 11.0)"> </text><text xml:space="preserve" font-family="MarkerFelt-Thin,Marker Felt" font-size="46.0" fill="#858585" transform="matrix(1.00, 0.00, -0.00, -1.00, 85.1, 11.0)">s</text><text xml:space="preserve" font-family="MarkerFelt-Thin,Marker Felt" font-size="46.0" fill="#858585" transform="matrix(1.00, 0.00, -0.00, -1.00, 104.0, 11.0)">u</text><text xml:space="preserve" font-family="MarkerFelt-Thin,Marker Felt" font-size="46.0" fill="#858585" transform="matrix(1.00, 0.00, -0.00, -1.00, 124.5, 11.0)">p</text><text xml:space="preserve" font-family="MarkerFelt-Thin,Marker Felt" font-size="46.0" fill="#858585" transform="matrix(1.00, 0.00, -0.00, -1.00, 144.3, 11.0)">p</text></g></svg>