<?xml version="1.0" encoding="UTF-8" standalone="no"?><svg xmlns="http://www.w3.org/2000/svg" xmlns:xlink="http://www.w3.org/1999/xlink" clip-rule="evenodd" stroke-miterlimit="10" viewBox="0 0 338 43"><desc>SVG generated by Keynote</desc><defs></defs><g transform="matrix(1.00, 0.00, -0.00, -1.00, 0.0, 43.0)"><g><clipPath id="clip0x608000ea8f40"><path d="M 0.0 7.2 L 25.2 7.2 L 25.2 30.7 L 0.0 30.7 Z M 0.0 7.2 "></path></clipPath><g clip-path="url(#clip0x608000ea8f40)"><path d="M 24.8 15.7 C 25.1 15.3 25.2 14.9 25.2 14.5 C 25.2 13.8 24.8 13.1 23.9 12.5 C 23.1 11.8 22.1 11.5 21.1 11.5 C 19.7 11.5 18.1 12.5 16.3 14.5 C 16.3 14.5 16.3 11.5 16.3 11.5 C 16.3 11.2 16.4 10.9 16.5 10.4 C 16.7 10.0 16.8 9.7 16.8 9.5 C 16.8 8.9 16.5 8.3 15.8 7.9 C 15.2 7.5 14.6 7.2 13.9 7.2 C 12.8 7.2 11.8 7.7 11.0 8.7 C 10.7 9.0 10.6 9.8 10.7 11.2 C 10.8 12.5 10.9 13.9 11.0 15.3 C 10.3 14.8 8.9 14.0 7.0 13.0 C 6.7 12.6 5.9 12.2 4.6 11.7 C 3.6 11.6 2.6 11.8 1.6 12.3 C 0.5 12.8 0.0 13.4 0.0 14.2 C 0.0 14.4 0.0 14.6 0.1 14.8 C 0.3 15.2 0.8 15.5 1.4 15.7 C 2.4 16.1 3.0 16.3 3.1 16.3 C 3.1 16.3 8.7 19.3 8.7 19.3 C 8.7 19.3 4.7 21.3 4.7 21.3 C 4.1 21.3 3.4 21.5 2.4 22.1 C 2.2 22.4 2.1 22.7 2.1 23.0 C 2.1 24.0 2.7 24.9 3.8 25.8 C 4.9 26.7 6.0 27.1 7.2 27.1 C 7.5 27.1 7.9 27.0 8.3 26.9 C 8.6 26.8 9.0 26.5 9.3 25.9 C 9.6 25.2 10.2 24.6 11.0 24.1 C 11.0 24.1 11.1 27.7 11.1 27.7 C 11.0 28.2 11.0 28.9 11.1 29.8 C 11.5 30.4 12.6 30.7 14.1 30.7 C 15.6 30.7 16.5 30.3 17.0 29.5 C 17.2 29.1 17.2 28.3 17.1 27.0 C 17.0 25.9 16.9 24.8 16.7 23.6 C 16.7 23.6 18.8 24.7 18.8 24.7 C 19.2 25.1 20.0 25.6 21.1 26.1 C 21.9 26.1 22.7 25.8 23.4 25.1 C 24.2 24.5 24.6 23.8 24.6 23.0 C 24.6 22.6 24.5 22.3 24.3 22.0 C 24.1 21.7 23.7 21.5 23.2 21.4 C 22.6 21.3 22.2 21.1 22.0 21.0 C 22.0 21.0 19.0 18.8 19.0 18.8 C 19.0 18.8 22.9 16.7 22.9 16.7 C 23.4 16.5 24.0 16.2 24.8 15.7 Z M 24.8 15.7 " fill="#3995D6"></path></g></g><text xml:space="preserve" font-family="MarkerFelt-Thin,Marker Felt" font-size="46.0" fill="#858585" transform="matrix(1.00, 0.00, -0.00, -1.00, 50.0, 4.0)">S</text><text xml:space="preserve" font-family="MarkerFelt-Thin,Marker Felt" font-size="46.0" fill="#858585" transform="matrix(1.00, 0.00, -0.00, -1.00, 71.2, 4.0)">t</text><text xml:space="preserve" font-family="MarkerFelt-Thin,Marker Felt" font-size="46.0" fill="#858585" transform="matrix(1.00, 0.00, -0.00, -1.00, 90.9, 4.0)">u</text><text xml:space="preserve" font-family="MarkerFelt-Thin,Marker Felt" font-size="46.0" fill="#858585" transform="matrix(1.00, 0.00, -0.00, -1.00, 111.3, 4.0)">d</text><text xml:space="preserve" font-family="MarkerFelt-Thin,Marker Felt" font-size="46.0" fill="#858585" transform="matrix(1.00, 0.00, -0.00, -1.00, 131.1, 4.0)">e</text><text xml:space="preserve" font-family="MarkerFelt-Thin,Marker Felt" font-size="46.0" fill="#858585" transform="matrix(1.00, 0.00, -0.00, -1.00, 151.5, 4.0)">n</text><text xml:space="preserve" font-family="MarkerFelt-Thin,Marker Felt" font-size="46.0" fill="#858585" transform="matrix(1.00, 0.00, -0.00, -1.00, 176.7, 4.0)">t</text><text xml:space="preserve" font-family="MarkerFelt-Thin,Marker Felt" font-size="46.0" fill="#858585" transform="matrix(1.00, 0.00, -0.00, -1.00, 193.2, 4.0)"> </text><text xml:space="preserve" font-family="MarkerFelt-Thin,Marker Felt" font-size="46.0" fill="#858585" transform="matrix(1.00, 0.00, -0.00, -1.00, 204.7, 4.0)">L</text><text xml:space="preserve" font-family="MarkerFelt-Thin,Marker Felt" font-size="46.0" fill="#858585" transform="matrix(1.00, 0.00, -0.00, -1.00, 225.8, 4.0)">i</text><text xml:space="preserve" font-family="MarkerFelt-Thin,Marker Felt" font-size="46.0" fill="#858585" transform="matrix(1.00, 0.00, -0.00, -1.00, 236.2, 4.0)">c</text><text xml:space="preserve" font-family="MarkerFelt-Thin,Marker Felt" font-size="46.0" fill="#858585" transform="matrix(1.00, 0.00, -0.00, -1.00, 255.3, 4.0)">e</text><text xml:space="preserve" font-family="MarkerFelt-Thin,Marker Felt" font-size="46.0" fill="#858585" transform="matrix(1.00, 0.00, -0.00, -1.00, 275.8, 4.0)">n</text><text xml:space="preserve" font-family="MarkerFelt-Thin,Marker Felt" font-size="46.0" fill="#858585" transform="matrix(1.00, 0.00, -0.00, -1.00, 300.1, 4.0)">s</text><text xml:space="preserve" font-family="MarkerFelt-Thin,Marker Felt" font-size="46.0" fill="#858585" transform="matrix(1.00, 0.00, -0.00, -1.00, 318.8, 4.0)">e</text></g></svg>