<?xml version="1.0" encoding="UTF-8" standalone="no"?><svg xmlns="http://www.w3.org/2000/svg" xmlns:xlink="http://www.w3.org/1999/xlink" clip-rule="evenodd" stroke-miterlimit="10" viewBox="0 0 351 50"><desc>SVG generated by Keynote</desc><defs></defs><g transform="matrix(1.00, 0.00, -0.00, -1.00, 0.0, 50.0)"><g><clipPath id="clip0x600000cb32c0"><path d="M 0.0 14.2 L 25.2 14.2 L 25.2 37.7 L 0.0 37.7 Z M 0.0 14.2 "></path></clipPath><g clip-path="url(#clip0x600000cb32c0)"><path d="M 24.8 22.7 C 25.1 22.3 25.2 21.9 25.2 21.5 C 25.2 20.8 24.8 20.1 23.9 19.5 C 23.1 18.8 22.1 18.5 21.1 18.5 C 19.7 18.5 18.1 19.5 16.3 21.5 C 16.3 21.5 16.3 18.5 16.3 18.5 C 16.3 18.2 16.4 17.9 16.5 17.4 C 16.7 17.0 16.8 16.7 16.8 16.5 C 16.8 15.9 16.5 15.3 15.8 14.9 C 15.2 14.5 14.6 14.2 13.9 14.2 C 12.8 14.2 11.8 14.7 11.0 15.7 C 10.7 16.0 10.6 16.8 10.7 18.2 C 10.8 19.5 10.9 20.9 11.0 22.3 C 10.3 21.8 8.9 21.0 7.0 20.0 C 6.7 19.6 5.9 19.2 4.6 18.7 C 3.6 18.6 2.6 18.8 1.6 19.3 C 0.5 19.8 0.0 20.4 0.0 21.2 C 0.0 21.4 0.0 21.6 0.1 21.8 C 0.3 22.2 0.8 22.5 1.4 22.7 C 2.4 23.1 3.0 23.3 3.1 23.3 C 3.1 23.3 8.7 26.3 8.7 26.3 C 8.7 26.3 4.7 28.3 4.7 28.3 C 4.1 28.3 3.4 28.5 2.4 29.1 C 2.2 29.4 2.1 29.7 2.1 30.0 C 2.1 31.0 2.7 31.9 3.8 32.8 C 4.9 33.7 6.0 34.1 7.2 34.1 C 7.5 34.1 7.9 34.0 8.3 33.9 C 8.6 33.8 9.0 33.5 9.3 32.9 C 9.6 32.2 10.2 31.6 11.0 31.1 C 11.0 31.1 11.1 34.7 11.1 34.7 C 11.0 35.2 11.0 35.9 11.1 36.8 C 11.5 37.4 12.6 37.7 14.1 37.7 C 15.6 37.7 16.5 37.3 17.0 36.5 C 17.2 36.1 17.2 35.3 17.1 34.0 C 17.0 32.9 16.9 31.8 16.7 30.6 C 16.7 30.6 18.8 31.7 18.8 31.7 C 19.2 32.1 20.0 32.6 21.1 33.1 C 21.9 33.1 22.7 32.8 23.4 32.1 C 24.2 31.5 24.6 30.8 24.6 30.0 C 24.6 29.6 24.5 29.3 24.3 29.0 C 24.1 28.7 23.7 28.5 23.2 28.4 C 22.6 28.3 22.2 28.1 22.0 28.0 C 22.0 28.0 19.0 25.8 19.0 25.8 C 19.0 25.8 22.9 23.7 22.9 23.7 C 23.4 23.5 24.0 23.2 24.8 22.7 Z M 24.8 22.7 " fill="#3995D6"></path></g></g><text xml:space="preserve" font-family="MarkerFelt-Thin,Marker Felt" font-size="46.0" fill="#858585" transform="matrix(1.00, 0.00, -0.00, -1.00, 50.0, 11.0)">F</text><text xml:space="preserve" font-family="MarkerFelt-Thin,Marker Felt" font-size="46.0" fill="#858585" transform="matrix(1.00, 0.00, -0.00, -1.00, 69.3, 11.0)">r</text><text xml:space="preserve" font-family="MarkerFelt-Thin,Marker Felt" font-size="46.0" fill="#858585" transform="matrix(1.00, 0.00, -0.00, -1.00, 88.1, 11.0)">a</text><text xml:space="preserve" font-family="MarkerFelt-Thin,Marker Felt" font-size="46.0" fill="#858585" transform="matrix(1.00, 0.00, -0.00, -1.00, 109.3, 11.0)">m</text><text xml:space="preserve" font-family="MarkerFelt-Thin,Marker Felt" font-size="46.0" fill="#858585" transform="matrix(1.00, 0.00, -0.00, -1.00, 142.4, 11.0)">e</text><text xml:space="preserve" font-family="MarkerFelt-Thin,Marker Felt" font-size="46.0" fill="#858585" transform="matrix(1.00, 0.00, -0.00, -1.00, 163.6, 11.0)">w</text><text xml:space="preserve" font-family="MarkerFelt-Thin,Marker Felt" font-size="46.0" fill="#858585" transform="matrix(1.00, 0.00, -0.00, -1.00, 196.7, 11.0)">o</text><text xml:space="preserve" font-family="MarkerFelt-Thin,Marker Felt" font-size="46.0" fill="#858585" transform="matrix(1.00, 0.00, -0.00, -1.00, 217.4, 11.0)">r</text><text xml:space="preserve" font-family="MarkerFelt-Thin,Marker Felt" font-size="46.0" fill="#858585" transform="matrix(1.00, 0.00, -0.00, -1.00, 237.4, 11.0)">k</text><text xml:space="preserve" font-family="MarkerFelt-Thin,Marker Felt" font-size="46.0" fill="#858585" transform="matrix(1.00, 0.00, -0.00, -1.00, 259.5, 11.0)"> </text><text xml:space="preserve" font-family="MarkerFelt-Thin,Marker Felt" font-size="46.0" fill="#858585" transform="matrix(1.00, 0.00, -0.00, -1.00, 271.0, 11.0)">s</text><text xml:space="preserve" font-family="MarkerFelt-Thin,Marker Felt" font-size="46.0" fill="#858585" transform="matrix(1.00, 0.00, -0.00, -1.00, 289.9, 11.0)">u</text><text xml:space="preserve" font-family="MarkerFelt-Thin,Marker Felt" font-size="46.0" fill="#858585" transform="matrix(1.00, 0.00, -0.00, -1.00, 310.5, 11.0)">p</text><text xml:space="preserve" font-family="MarkerFelt-Thin,Marker Felt" font-size="46.0" fill="#858585" transform="matrix(1.00, 0.00, -0.00, -1.00, 330.3, 11.0)">p</text></g></svg>