<?xml version="1.0" encoding="UTF-8" standalone="no"?><svg xmlns="http://www.w3.org/2000/svg" xmlns:xlink="http://www.w3.org/1999/xlink" clip-rule="evenodd" stroke-miterlimit="10" viewBox="0 0 190 42"><desc>SVG generated by Keynote</desc><defs></defs><g transform="matrix(1.00, 0.00, -0.00, -1.00, 0.0, 42.0)"><g><clipPath id="clip0x608000eb3fe0"><path d="M 0.0 6.2 L 25.2 6.2 L 25.2 29.7 L 0.0 29.7 Z M 0.0 6.2 "></path></clipPath><g clip-path="url(#clip0x608000eb3fe0)"><path d="M 24.8 14.7 C 25.1 14.3 25.2 13.9 25.2 13.5 C 25.2 12.8 24.8 12.1 23.9 11.5 C 23.1 10.8 22.1 10.5 21.1 10.5 C 19.7 10.5 18.1 11.5 16.3 13.5 C 16.3 13.5 16.3 10.5 16.3 10.5 C 16.3 10.2 16.4 9.9 16.5 9.4 C 16.7 9.0 16.8 8.7 16.8 8.5 C 16.8 7.9 16.5 7.3 15.8 6.9 C 15.2 6.5 14.6 6.2 13.9 6.2 C 12.8 6.2 11.8 6.7 11.0 7.7 C 10.7 8.0 10.6 8.8 10.7 10.2 C 10.8 11.5 10.9 12.9 11.0 14.3 C 10.3 13.8 8.9 13.0 7.0 12.0 C 6.7 11.6 5.9 11.2 4.6 10.7 C 3.6 10.6 2.6 10.8 1.6 11.3 C 0.5 11.8 0.0 12.4 0.0 13.2 C 0.0 13.4 0.0 13.6 0.1 13.8 C 0.3 14.2 0.8 14.5 1.4 14.7 C 2.4 15.1 3.0 15.3 3.1 15.3 C 3.1 15.3 8.7 18.3 8.7 18.3 C 8.7 18.3 4.7 20.3 4.7 20.3 C 4.1 20.3 3.4 20.5 2.4 21.1 C 2.2 21.4 2.1 21.7 2.1 22.0 C 2.1 23.0 2.7 23.9 3.8 24.8 C 4.9 25.7 6.0 26.1 7.2 26.1 C 7.5 26.1 7.9 26.0 8.3 25.9 C 8.6 25.8 9.0 25.5 9.3 24.9 C 9.6 24.2 10.2 23.6 11.0 23.1 C 11.0 23.1 11.1 26.7 11.1 26.7 C 11.0 27.2 11.0 27.9 11.1 28.8 C 11.5 29.4 12.6 29.7 14.1 29.7 C 15.6 29.7 16.5 29.3 17.0 28.5 C 17.2 28.1 17.2 27.3 17.1 26.0 C 17.0 24.9 16.9 23.8 16.7 22.6 C 16.7 22.6 18.8 23.7 18.8 23.7 C 19.2 24.1 20.0 24.6 21.1 25.1 C 21.9 25.1 22.7 24.8 23.4 24.1 C 24.2 23.5 24.6 22.8 24.6 22.0 C 24.6 21.6 24.5 21.3 24.3 21.0 C 24.1 20.7 23.7 20.5 23.2 20.4 C 22.6 20.3 22.2 20.1 22.0 20.0 C 22.0 20.0 19.0 17.8 19.0 17.8 C 19.0 17.8 22.9 15.7 22.9 15.7 C 23.4 15.5 24.0 15.2 24.8 14.7 Z M 24.8 14.7 " fill="#3995D6"></path></g></g><text xml:space="preserve" font-family="MarkerFelt-Thin,Marker Felt" font-size="46.0" fill="#858585" transform="matrix(1.00, 0.00, -0.00, -1.00, 50.0, 3.0)">G</text><text xml:space="preserve" font-family="MarkerFelt-Thin,Marker Felt" font-size="46.0" fill="#858585" transform="matrix(1.00, 0.00, -0.00, -1.00, 74.9, 3.0)">e</text><text xml:space="preserve" font-family="MarkerFelt-Thin,Marker Felt" font-size="46.0" fill="#858585" transform="matrix(1.00, 0.00, -0.00, -1.00, 96.2, 3.0)">t</text><text xml:space="preserve" font-family="MarkerFelt-Thin,Marker Felt" font-size="46.0" fill="#858585" transform="matrix(1.00, 0.00, -0.00, -1.00, 116.7, 3.0)">t</text><text xml:space="preserve" font-family="MarkerFelt-Thin,Marker Felt" font-size="46.0" fill="#858585" transform="matrix(1.00, 0.00, -0.00, -1.00, 134.2, 3.0)">e</text><text xml:space="preserve" font-family="MarkerFelt-Thin,Marker Felt" font-size="46.0" fill="#858585" transform="matrix(1.00, 0.00, -0.00, -1.00, 154.5, 3.0)">r</text><text xml:space="preserve" font-family="MarkerFelt-Thin,Marker Felt" font-size="46.0" fill="#858585" transform="matrix(1.00, 0.00, -0.00, -1.00, 171.9, 3.0)">s</text><text xml:space="preserve" font-family="MarkerFelt-Thin,Marker Felt" font-size="46.0" fill="#858585" transform="matrix(1.00, 0.00, -0.00, -1.00, 189.0, 3.0)"> </text></g></svg>