<?xml version="1.0" encoding="UTF-8" standalone="no"?><svg xmlns="http://www.w3.org/2000/svg" xmlns:xlink="http://www.w3.org/1999/xlink" clip-rule="evenodd" stroke-miterlimit="10" viewBox="0 0 122 49"><desc>SVG generated by Keynote</desc><defs></defs><g transform="matrix(1.00, 0.00, -0.00, -1.00, 0.0, 49.0)"><g><clipPath id="clip0x600000eb81e0"><path d="M 0.0 13.2 L 25.2 13.2 L 25.2 36.7 L 0.0 36.7 Z M 0.0 13.2 "></path></clipPath><g clip-path="url(#clip0x600000eb81e0)"><path d="M 24.8 21.7 C 25.1 21.3 25.2 20.9 25.2 20.5 C 25.2 19.8 24.8 19.1 23.9 18.5 C 23.1 17.8 22.1 17.5 21.1 17.5 C 19.7 17.5 18.1 18.5 16.3 20.5 C 16.3 20.5 16.3 17.5 16.3 17.5 C 16.3 17.2 16.4 16.9 16.5 16.4 C 16.7 16.0 16.8 15.7 16.8 15.5 C 16.8 14.9 16.5 14.3 15.8 13.9 C 15.2 13.5 14.6 13.2 13.9 13.2 C 12.8 13.2 11.8 13.7 11.0 14.7 C 10.7 15.0 10.6 15.8 10.7 17.2 C 10.8 18.5 10.9 19.9 11.0 21.3 C 10.3 20.8 8.9 20.0 7.0 19.0 C 6.7 18.6 5.9 18.2 4.6 17.7 C 3.6 17.6 2.6 17.8 1.6 18.3 C 0.5 18.8 0.0 19.4 0.0 20.2 C 0.0 20.4 0.0 20.6 0.1 20.8 C 0.3 21.2 0.8 21.5 1.4 21.7 C 2.4 22.1 3.0 22.3 3.1 22.3 C 3.1 22.3 8.7 25.3 8.7 25.3 C 8.7 25.3 4.7 27.3 4.7 27.3 C 4.1 27.3 3.4 27.5 2.4 28.1 C 2.2 28.4 2.1 28.7 2.1 29.0 C 2.1 30.0 2.7 30.9 3.8 31.8 C 4.9 32.7 6.0 33.1 7.2 33.1 C 7.5 33.1 7.9 33.0 8.3 32.9 C 8.6 32.8 9.0 32.5 9.3 31.9 C 9.6 31.2 10.2 30.6 11.0 30.1 C 11.0 30.1 11.1 33.7 11.1 33.7 C 11.0 34.2 11.0 34.9 11.1 35.8 C 11.5 36.4 12.6 36.7 14.1 36.7 C 15.6 36.7 16.5 36.3 17.0 35.5 C 17.2 35.1 17.2 34.3 17.1 33.0 C 17.0 31.9 16.9 30.8 16.7 29.6 C 16.7 29.6 18.8 30.7 18.8 30.7 C 19.2 31.1 20.0 31.6 21.1 32.1 C 21.9 32.1 22.7 31.8 23.4 31.1 C 24.2 30.5 24.6 29.8 24.6 29.0 C 24.6 28.6 24.5 28.3 24.3 28.0 C 24.1 27.7 23.7 27.5 23.2 27.4 C 22.6 27.3 22.2 27.1 22.0 27.0 C 22.0 27.0 19.0 24.8 19.0 24.8 C 19.0 24.8 22.9 22.7 22.9 22.7 C 23.4 22.5 24.0 22.2 24.8 21.7 Z M 24.8 21.7 " fill="#3995D6"></path></g></g><text xml:space="preserve" font-family="MarkerFelt-Thin,Marker Felt" font-size="46.0" fill="#858585" transform="matrix(1.00, 0.00, -0.00, -1.00, 50.0, 10.0)">D</text><text xml:space="preserve" font-family="MarkerFelt-Thin,Marker Felt" font-size="46.0" fill="#858585" transform="matrix(1.00, 0.00, -0.00, -1.00, 74.7, 10.0)">y</text><text xml:space="preserve" font-family="MarkerFelt-Thin,Marker Felt" font-size="46.0" fill="#858585" transform="matrix(1.00, 0.00, -0.00, -1.00, 98.3, 10.0)">n</text></g></svg>