<?xml version="1.0" encoding="UTF-8" standalone="no"?><svg xmlns="http://www.w3.org/2000/svg" xmlns:xlink="http://www.w3.org/1999/xlink" clip-rule="evenodd" stroke-miterlimit="10" viewBox="0 0 18 17"><desc>SVG generated by Keynote</desc><defs></defs><g transform="matrix(1.00, 0.00, -0.00, -1.00, 0.0, 17.0)"><g><clipPath id="clip0x6000012aace0"><path d="M 1.0 0.8 L 17.4 0.8 L 17.4 16.1 L 1.0 16.1 Z M 1.0 0.8 "></path></clipPath><g clip-path="url(#clip0x6000012aace0)"><path d="M 17.2 6.3 C 17.3 6.1 17.4 5.8 17.4 5.6 C 17.4 5.1 17.1 4.6 16.6 4.2 C 16.0 3.8 15.4 3.6 14.7 3.6 C 13.8 3.6 12.8 4.2 11.6 5.6 C 11.6 5.6 11.6 3.6 11.6 3.6 C 11.6 3.4 11.7 3.2 11.8 2.9 C 11.9 2.6 11.9 2.4 11.9 2.3 C 11.9 1.9 11.7 1.5 11.3 1.2 C 10.9 0.9 10.5 0.8 10.1 0.8 C 9.3 0.8 8.7 1.1 8.1 1.8 C 8.0 2.0 7.9 2.5 8.0 3.3 C 8.0 4.2 8.1 5.1 8.1 6.0 C 7.7 5.7 6.8 5.2 5.5 4.5 C 5.4 4.3 4.9 4.0 4.0 3.7 C 3.3 3.7 2.7 3.8 2.0 4.1 C 1.3 4.4 1.0 4.8 1.0 5.3 C 1.0 5.4 1.0 5.6 1.1 5.7 C 1.2 6.0 1.5 6.2 1.9 6.3 C 2.6 6.6 3.0 6.7 3.0 6.7 C 3.0 6.7 6.6 8.7 6.6 8.7 C 6.6 8.7 4.1 9.9 4.1 9.9 C 3.7 9.9 3.2 10.1 2.6 10.5 C 2.5 10.7 2.4 10.9 2.4 11.1 C 2.4 11.7 2.7 12.3 3.5 12.9 C 4.2 13.5 4.9 13.8 5.7 13.8 C 5.9 13.8 6.1 13.7 6.4 13.6 C 6.6 13.6 6.8 13.3 7.0 13.0 C 7.2 12.5 7.6 12.1 8.1 11.8 C 8.1 11.8 8.2 14.1 8.2 14.1 C 8.1 14.5 8.1 14.9 8.2 15.5 C 8.5 15.9 9.2 16.1 10.2 16.1 C 11.1 16.1 11.8 15.8 12.1 15.3 C 12.2 15.1 12.2 14.5 12.1 13.7 C 12.1 13.0 12.0 12.2 11.9 11.5 C 11.9 11.5 13.3 12.2 13.3 12.2 C 13.5 12.5 14.0 12.8 14.7 13.1 C 15.3 13.1 15.8 12.9 16.3 12.5 C 16.8 12.0 17.0 11.6 17.0 11.1 C 17.0 10.8 17.0 10.6 16.8 10.4 C 16.7 10.2 16.5 10.1 16.2 10.0 C 15.7 9.9 15.5 9.8 15.3 9.8 C 15.3 9.8 13.3 8.4 13.3 8.4 C 13.3 8.4 15.9 7.0 15.9 7.0 C 16.2 6.9 16.6 6.6 17.2 6.3 Z M 17.2 6.3 " fill="#3995D6"></path></g></g></g></svg>