<?xml version="1.0" encoding="UTF-8" standalone="no"?><svg xmlns="http://www.w3.org/2000/svg" xmlns:xlink="http://www.w3.org/1999/xlink" clip-rule="evenodd" stroke-miterlimit="10" viewBox="0 0 18 16"><desc>SVG generated by Keynote</desc><defs></defs><g transform="matrix(1.00, 0.00, -0.00, -1.00, 0.0, 16.0)"><g><clipPath id="clip0x6000012acea0"><path d="M 1.0 0.2 L 17.4 0.2 L 17.4 15.5 L 1.0 15.5 Z M 1.0 0.2 "></path></clipPath><g clip-path="url(#clip0x6000012acea0)"><path d="M 17.2 5.7 C 17.3 5.5 17.4 5.2 17.4 5.0 C 17.4 4.5 17.1 4.0 16.6 3.6 C 16.0 3.2 15.4 3.0 14.7 3.0 C 13.8 3.0 12.8 3.6 11.6 5.0 C 11.6 5.0 11.6 3.0 11.6 3.0 C 11.6 2.8 11.7 2.6 11.8 2.3 C 11.9 2.0 11.9 1.8 11.9 1.7 C 11.9 1.3 11.7 0.9 11.3 0.6 C 10.9 0.3 10.5 0.2 10.1 0.2 C 9.3 0.2 8.7 0.5 8.1 1.2 C 8.0 1.4 7.9 1.9 8.0 2.7 C 8.0 3.6 8.1 4.5 8.1 5.4 C 7.7 5.1 6.8 4.6 5.5 3.9 C 5.4 3.7 4.9 3.4 4.0 3.1 C 3.3 3.1 2.7 3.2 2.0 3.5 C 1.3 3.8 1.0 4.2 1.0 4.7 C 1.0 4.8 1.0 5.0 1.1 5.1 C 1.2 5.4 1.5 5.6 1.9 5.7 C 2.6 6.0 3.0 6.1 3.0 6.1 C 3.0 6.1 6.6 8.1 6.6 8.1 C 6.6 8.1 4.1 9.3 4.1 9.3 C 3.7 9.3 3.2 9.5 2.6 9.9 C 2.5 10.1 2.4 10.3 2.4 10.5 C 2.4 11.1 2.7 11.7 3.5 12.3 C 4.2 12.9 4.9 13.2 5.7 13.2 C 5.9 13.2 6.1 13.1 6.4 13.0 C 6.6 13.0 6.8 12.7 7.0 12.4 C 7.2 11.9 7.6 11.5 8.1 11.2 C 8.1 11.2 8.2 13.5 8.2 13.5 C 8.1 13.9 8.1 14.3 8.2 14.9 C 8.5 15.3 9.2 15.5 10.2 15.5 C 11.1 15.5 11.8 15.2 12.1 14.7 C 12.2 14.5 12.2 13.9 12.1 13.1 C 12.1 12.4 12.0 11.6 11.9 10.9 C 11.9 10.9 13.3 11.6 13.3 11.6 C 13.5 11.9 14.0 12.2 14.7 12.5 C 15.3 12.5 15.8 12.3 16.3 11.9 C 16.8 11.4 17.0 11.0 17.0 10.5 C 17.0 10.2 17.0 10.0 16.8 9.8 C 16.7 9.6 16.5 9.5 16.2 9.4 C 15.7 9.3 15.5 9.2 15.3 9.2 C 15.3 9.2 13.3 7.8 13.3 7.8 C 13.3 7.8 15.9 6.4 15.9 6.4 C 16.2 6.3 16.6 6.0 17.2 5.7 Z M 17.2 5.7 " fill="#3995D6"></path></g></g></g></svg>