<?xml version="1.0" encoding="UTF-8" standalone="no"?><svg xmlns="http://www.w3.org/2000/svg" xmlns:xlink="http://www.w3.org/1999/xlink" clip-rule="evenodd" stroke-miterlimit="10" viewBox="0 0 198 35"><desc>SVG generated by Keynote</desc><defs></defs><g transform="matrix(1.00, 0.00, -0.00, -1.00, 0.0, 35.0)"><g><clipPath id="clip0x6080014bbb40"><path d="M 1.0 10.0 L 17.4 10.0 L 17.4 25.3 L 1.0 25.3 Z M 1.0 10.0 "></path></clipPath><g clip-path="url(#clip0x6080014bbb40)"><path d="M 17.2 15.5 C 17.3 15.3 17.4 15.0 17.4 14.8 C 17.4 14.3 17.1 13.8 16.6 13.4 C 16.0 13.0 15.4 12.8 14.7 12.8 C 13.8 12.8 12.8 13.4 11.6 14.8 C 11.6 14.8 11.6 12.8 11.6 12.8 C 11.6 12.6 11.7 12.4 11.8 12.1 C 11.9 11.8 11.9 11.6 11.9 11.5 C 11.9 11.1 11.7 10.7 11.3 10.4 C 10.9 10.1 10.5 10.0 10.1 10.0 C 9.3 10.0 8.7 10.3 8.1 11.0 C 8.0 11.2 7.9 11.7 8.0 12.5 C 8.0 13.4 8.1 14.3 8.1 15.2 C 7.7 14.9 6.8 14.4 5.5 13.7 C 5.4 13.5 4.9 13.2 4.0 12.9 C 3.3 12.9 2.7 13.0 2.0 13.3 C 1.3 13.6 1.0 14.0 1.0 14.5 C 1.0 14.6 1.0 14.8 1.1 14.9 C 1.2 15.2 1.5 15.4 1.9 15.5 C 2.6 15.8 3.0 15.9 3.0 15.9 C 3.0 15.9 6.6 17.9 6.6 17.9 C 6.6 17.9 4.1 19.1 4.1 19.1 C 3.7 19.1 3.2 19.3 2.6 19.7 C 2.5 19.9 2.4 20.1 2.4 20.3 C 2.4 20.9 2.7 21.5 3.5 22.1 C 4.2 22.7 4.9 23.0 5.7 23.0 C 5.9 23.0 6.1 22.9 6.4 22.8 C 6.6 22.8 6.8 22.5 7.0 22.2 C 7.2 21.7 7.6 21.3 8.1 21.0 C 8.1 21.0 8.2 23.3 8.2 23.3 C 8.1 23.7 8.1 24.1 8.2 24.7 C 8.5 25.1 9.2 25.3 10.2 25.3 C 11.1 25.3 11.8 25.0 12.1 24.5 C 12.2 24.3 12.2 23.7 12.1 22.9 C 12.1 22.2 12.0 21.4 11.9 20.7 C 11.9 20.7 13.3 21.4 13.3 21.4 C 13.5 21.7 14.0 22.0 14.7 22.3 C 15.3 22.3 15.8 22.1 16.3 21.7 C 16.8 21.2 17.0 20.8 17.0 20.3 C 17.0 20.0 17.0 19.8 16.8 19.6 C 16.7 19.4 16.5 19.3 16.2 19.2 C 15.7 19.1 15.5 19.0 15.3 19.0 C 15.3 19.0 13.3 17.6 13.3 17.6 C 13.3 17.6 15.9 16.2 15.9 16.2 C 16.2 16.1 16.6 15.8 17.2 15.5 Z M 17.2 15.5 " fill="#3995D6"></path></g></g><text xml:space="preserve" font-family="MarkerFelt-Thin,Marker Felt" font-size="30.0" fill="#858585" transform="matrix(1.00, 0.00, -0.00, -1.00, 51.0, 7.9)">O</text><text xml:space="preserve" font-family="MarkerFelt-Thin,Marker Felt" font-size="30.0" fill="#858585" transform="matrix(1.00, 0.00, -0.00, -1.00, 68.0, 7.9)">p</text><text xml:space="preserve" font-family="MarkerFelt-Thin,Marker Felt" font-size="30.0" fill="#858585" transform="matrix(1.00, 0.00, -0.00, -1.00, 82.0, 7.9)">e</text><text xml:space="preserve" font-family="MarkerFelt-Thin,Marker Felt" font-size="30.0" fill="#858585" transform="matrix(1.00, 0.00, -0.00, -1.00, 95.3, 7.9)">n</text><text xml:space="preserve" font-family="MarkerFelt-Thin,Marker Felt" font-size="30.0" fill="#858585" transform="matrix(1.00, 0.00, -0.00, -1.00, 110.0, 7.9)"> </text><text xml:space="preserve" font-family="MarkerFelt-Thin,Marker Felt" font-size="30.0" fill="#858585" transform="matrix(1.00, 0.00, -0.00, -1.00, 117.5, 7.9)">S</text><text xml:space="preserve" font-family="MarkerFelt-Thin,Marker Felt" font-size="30.0" fill="#858585" transform="matrix(1.00, 0.00, -0.00, -1.00, 133.5, 7.9)">o</text><text xml:space="preserve" font-family="MarkerFelt-Thin,Marker Felt" font-size="30.0" fill="#858585" transform="matrix(1.00, 0.00, -0.00, -1.00, 147.3, 7.9)">u</text><text xml:space="preserve" font-family="MarkerFelt-Thin,Marker Felt" font-size="30.0" fill="#858585" transform="matrix(1.00, 0.00, -0.00, -1.00, 161.0, 7.9)">r</text><text xml:space="preserve" font-family="MarkerFelt-Thin,Marker Felt" font-size="30.0" fill="#858585" transform="matrix(1.00, 0.00, -0.00, -1.00, 172.4, 7.9)">c</text><text xml:space="preserve" font-family="MarkerFelt-Thin,Marker Felt" font-size="30.0" fill="#858585" transform="matrix(1.00, 0.00, -0.00, -1.00, 184.9, 7.9)">e</text></g></svg>