<?xml version="1.0" encoding="UTF-8" standalone="no"?><svg xmlns="http://www.w3.org/2000/svg" xmlns:xlink="http://www.w3.org/1999/xlink" clip-rule="evenodd" stroke-miterlimit="10" viewBox="0 0 275 50"><desc>SVG generated by Keynote</desc><defs></defs><g transform="matrix(1.00, 0.00, -0.00, -1.00, 0.0, 50.0)"><text xml:space="preserve" font-family="MarkerFelt-Thin,Marker Felt" font-size="46.0" fill="#858585" transform="matrix(1.00, 0.00, -0.00, -1.00, 50.0, 11.0)">O</text><text xml:space="preserve" font-family="MarkerFelt-Thin,Marker Felt" font-size="46.0" fill="#858585" transform="matrix(1.00, 0.00, -0.00, -1.00, 76.1, 11.0)">p</text><text xml:space="preserve" font-family="MarkerFelt-Thin,Marker Felt" font-size="46.0" fill="#858585" transform="matrix(1.00, 0.00, -0.00, -1.00, 97.6, 11.0)">e</text><text xml:space="preserve" font-family="MarkerFelt-Thin,Marker Felt" font-size="46.0" fill="#858585" transform="matrix(1.00, 0.00, -0.00, -1.00, 118.0, 11.0)">n</text><text xml:space="preserve" font-family="MarkerFelt-Thin,Marker Felt" font-size="46.0" fill="#858585" transform="matrix(1.00, 0.00, -0.00, -1.00, 140.5, 11.0)"> </text><text xml:space="preserve" font-family="MarkerFelt-Thin,Marker Felt" font-size="46.0" fill="#858585" transform="matrix(1.00, 0.00, -0.00, -1.00, 152.0, 11.0)">S</text><text xml:space="preserve" font-family="MarkerFelt-Thin,Marker Felt" font-size="46.0" fill="#858585" transform="matrix(1.00, 0.00, -0.00, -1.00, 176.5, 11.0)">o</text><text xml:space="preserve" font-family="MarkerFelt-Thin,Marker Felt" font-size="46.0" fill="#858585" transform="matrix(1.00, 0.00, -0.00, -1.00, 197.7, 11.0)">u</text><text xml:space="preserve" font-family="MarkerFelt-Thin,Marker Felt" font-size="46.0" fill="#858585" transform="matrix(1.00, 0.00, -0.00, -1.00, 218.7, 11.0)">r</text><text xml:space="preserve" font-family="MarkerFelt-Thin,Marker Felt" font-size="46.0" fill="#858585" transform="matrix(1.00, 0.00, -0.00, -1.00, 236.2, 11.0)">c</text><text xml:space="preserve" font-family="MarkerFelt-Thin,Marker Felt" font-size="46.0" fill="#858585" transform="matrix(1.00, 0.00, -0.00, -1.00, 255.3, 11.0)">e</text></g></svg>